REM DIRINDEX 1\2\4\18,1\2\4\19,1\2\5\20,1\2\5\21,1\2\6\22,1\2\6\23,1\2\7\24,1\2\7\25,1\2\8\26,1\2\8\27,1\2\9\28,1\2\9\29,1\2\10\30,1\3\11\31,1\3\11\32,1\3\11\33,1\3\11\34,1\3\11\35,1\3\12\36,1\3\12\37,1\3\12\38,1\3\12\39,1\3\12\40,1\3\13\41,1\3\13\42,1\3\13\43,1\3\13\44,1\3\13\45,1\3\14\46,1\3\14\47,1\3\14\48,1\3\14\49,1\3\15\50,1\3\15\51,1\3\15\52,1\3\15\53,1\3\15\54,1\3\16\55,1\3\16\56,1\3\16\57,1\3\16\58,1\3\16\59,1\3\17\60,1\3\17\61
REM DIRNAME "folder01","folder02","folder03","folder04","folder05","folder06","folder07","folder08","folder09","folder10","folder11","folder12","folder13","folder14","folder15","folder16","folder17","folder18","folder19","folder20","folder21","folder22","folder23","folder24","folder25","folder26","folder27","folder28","folder29","folder30","folder31","folder32","folder33","folder34","folder35","folder36","folder37","folder38","folder39","folder40","folder41","folder42","folder43","folder44","folder45","folder46","folder47","folder48","folder49","folder50","folder51","folder52","folder53","folder54","folder55","folder56","folder57","folder58","folder59","folder60","folder61"
TITLE ""
FILE "TOEIC LR Kinnojyukugo_10.mp3" MP3
  TRACK 01 AUDIO
    TITLE "0:"
    INDEX 01 00:00:00
  TRACK 02 AUDIO
    TITLE "18:cjc160_1231"
    INDEX 01 00:00:12
  TRACK 03 AUDIO
    TITLE "0:"
    INDEX 01 00:01:27
  TRACK 04 AUDIO
    TITLE "19:cjc160_1232"
    INDEX 01 00:01:57
  TRACK 05 AUDIO
    TITLE "0:"
    INDEX 01 00:03:38
  TRACK 06 AUDIO
    TITLE "18:cjc160_1233"
    INDEX 01 00:04:43
  TRACK 07 AUDIO
    TITLE "0:"
    INDEX 01 00:05:70
  TRACK 08 AUDIO
    TITLE "19:cjc160_1234"
    INDEX 01 00:06:34
  TRACK 09 AUDIO
    TITLE "0:"
    INDEX 01 00:08:29
  TRACK 10 AUDIO
    TITLE "18:cjc160_1235"
    INDEX 01 00:09:33
  TRACK 11 AUDIO
    TITLE "0:"
    INDEX 01 00:10:58
  TRACK 12 AUDIO
    TITLE "19:cjc160_1236"
    INDEX 01 00:11:20
  TRACK 13 AUDIO
    TITLE "0:"
    INDEX 01 00:13:72
  TRACK 14 AUDIO
    TITLE "18:cjc160_1237"
    INDEX 01 00:14:73
  TRACK 15 AUDIO
    TITLE "0:"
    INDEX 01 00:16:23
  TRACK 16 AUDIO
    TITLE "19:cjc160_1238"
    INDEX 01 00:16:62
  TRACK 17 AUDIO
    TITLE "0:"
    INDEX 01 00:18:71
  TRACK 18 AUDIO
    TITLE "18:cjc160_1239"
    INDEX 01 00:19:72
  TRACK 19 AUDIO
    TITLE "0:"
    INDEX 01 00:21:20
  TRACK 20 AUDIO
    TITLE "19:cjc160_1240"
    INDEX 01 00:21:59
  TRACK 21 AUDIO
    TITLE "0:"
    INDEX 01 00:24:05
  TRACK 22 AUDIO
    TITLE "18:cjc160_1241"
    INDEX 01 00:25:04
  TRACK 23 AUDIO
    TITLE "0:"
    INDEX 01 00:26:31
  TRACK 24 AUDIO
    TITLE "19:cjc160_1242"
    INDEX 01 00:26:66
  TRACK 25 AUDIO
    TITLE "0:"
    INDEX 01 00:29:57
  TRACK 26 AUDIO
    TITLE "18:cjc160_1243"
    INDEX 01 00:30:60
  TRACK 27 AUDIO
    TITLE "0:"
    INDEX 01 00:32:10
  TRACK 28 AUDIO
    TITLE "19:cjc160_1244"
    INDEX 01 00:32:48
  TRACK 29 AUDIO
    TITLE "0:"
    INDEX 01 00:34:27
  TRACK 30 AUDIO
    TITLE "18:cjc160_1245"
    INDEX 01 00:35:28
  TRACK 31 AUDIO
    TITLE "0:"
    INDEX 01 00:36:63
  TRACK 32 AUDIO
    TITLE "19:cjc160_1246"
    INDEX 01 00:37:27
  TRACK 33 AUDIO
    TITLE "0:"
    INDEX 01 00:39:59
  TRACK 34 AUDIO
    TITLE "18:cjc160_1247"
    INDEX 01 00:40:65
  TRACK 35 AUDIO
    TITLE "0:"
    INDEX 01 00:42:05
  TRACK 36 AUDIO
    TITLE "19:cjc160_1248"
    INDEX 01 00:42:44
  TRACK 37 AUDIO
    TITLE "0:"
    INDEX 01 00:44:12
  TRACK 38 AUDIO
    TITLE "18:cjc160_1249"
    INDEX 01 00:45:13
  TRACK 39 AUDIO
    TITLE "0:"
    INDEX 01 00:46:55
  TRACK 40 AUDIO
    TITLE "19:cjc160_1250"
    INDEX 01 00:47:27
  TRACK 41 AUDIO
    TITLE "0:"
    INDEX 01 00:49:32
  TRACK 42 AUDIO
    TITLE "18:cjc160_1251"
    INDEX 01 00:50:32
  TRACK 43 AUDIO
    TITLE "0:"
    INDEX 01 00:52:03
  TRACK 44 AUDIO
    TITLE "19:cjc160_1252"
    INDEX 01 00:52:40
  TRACK 45 AUDIO
    TITLE "0:"
    INDEX 01 00:54:55
  TRACK 46 AUDIO
    TITLE "18:cjc160_1253"
    INDEX 01 00:55:56
  TRACK 47 AUDIO
    TITLE "0:"
    INDEX 01 00:57:20
  TRACK 48 AUDIO
    TITLE "19:cjc160_1254"
    INDEX 01 00:57:57
  TRACK 49 AUDIO
    TITLE "0:"
    INDEX 01 01:01:04
  TRACK 50 AUDIO
    TITLE "18:cjc160_1255"
    INDEX 01 01:02:04
  TRACK 51 AUDIO
    TITLE "0:"
    INDEX 01 01:03:27
  TRACK 52 AUDIO
    TITLE "19:cjc160_1256"
    INDEX 01 01:03:68
  TRACK 53 AUDIO
    TITLE "0:"
    INDEX 01 01:06:23
  TRACK 54 AUDIO
    TITLE "18:cjc160_1257"
    INDEX 01 01:07:22
  TRACK 55 AUDIO
    TITLE "0:"
    INDEX 01 01:08:43
  TRACK 56 AUDIO
    TITLE "19:cjc160_1258"
    INDEX 01 01:09:10
  TRACK 57 AUDIO
    TITLE "0:"
    INDEX 01 01:11:30
  TRACK 58 AUDIO
    TITLE "18:cjc160_1259"
    INDEX 01 01:12:29
  TRACK 59 AUDIO
    TITLE "0:"
    INDEX 01 01:13:46
  TRACK 60 AUDIO
    TITLE "19:cjc160_1260"
    INDEX 01 01:14:09
  TRACK 61 AUDIO
    TITLE "0:"
    INDEX 01 01:16:72
  TRACK 62 AUDIO
    TITLE "18:cjc160_1261"
    INDEX 01 01:17:72
  TRACK 63 AUDIO
    TITLE "0:"
    INDEX 01 01:19:06
  TRACK 64 AUDIO
    TITLE "19:cjc160_1262"
    INDEX 01 01:19:37
  TRACK 65 AUDIO
    TITLE "0:"
    INDEX 01 01:21:36
  TRACK 66 AUDIO
    TITLE "18:cjc160_1263"
    INDEX 01 01:22:38
  TRACK 67 AUDIO
    TITLE "0:"
    INDEX 01 01:23:51
  TRACK 68 AUDIO
    TITLE "19:cjc160_1264"
    INDEX 01 01:24:15
  TRACK 69 AUDIO
    TITLE "0:"
    INDEX 01 01:27:21
  TRACK 70 AUDIO
    TITLE "18:cjc160_1265"
    INDEX 01 01:28:24
  TRACK 71 AUDIO
    TITLE "0:"
    INDEX 01 01:29:32
  TRACK 72 AUDIO
    TITLE "19:cjc160_1266"
    INDEX 01 01:29:69
  TRACK 73 AUDIO
    TITLE "0:"
    INDEX 01 01:32:22
  TRACK 74 AUDIO
    TITLE "18:cjc160_1267"
    INDEX 01 01:33:22
  TRACK 75 AUDIO
    TITLE "0:"
    INDEX 01 01:34:56
  TRACK 76 AUDIO
    TITLE "19:cjc160_1268"
    INDEX 01 01:35:21
  TRACK 77 AUDIO
    TITLE "0:"
    INDEX 01 01:37:23
  TRACK 78 AUDIO
    TITLE "18:cjc160_1269"
    INDEX 01 01:38:25
  TRACK 79 AUDIO
    TITLE "0:"
    INDEX 01 01:39:73
  TRACK 80 AUDIO
    TITLE "19:cjc160_1270"
    INDEX 01 01:40:36
  TRACK 81 AUDIO
    TITLE "0:"
    INDEX 01 01:43:32
  TRACK 82 AUDIO
    TITLE "18:cjc160_1271"
    INDEX 01 01:44:31
  TRACK 83 AUDIO
    TITLE "0:"
    INDEX 01 01:45:72
  TRACK 84 AUDIO
    TITLE "19:cjc160_1272"
    INDEX 01 01:46:38
  TRACK 85 AUDIO
    TITLE "0:"
    INDEX 01 01:48:33
  TRACK 86 AUDIO
    TITLE "18:cjc160_1273"
    INDEX 01 01:49:34
  TRACK 87 AUDIO
    TITLE "0:"
    INDEX 01 01:50:54
  TRACK 88 AUDIO
    TITLE "19:cjc160_1274"
    INDEX 01 01:51:18
  TRACK 89 AUDIO
    TITLE "0:"
    INDEX 01 01:53:17
  TRACK 90 AUDIO
    TITLE "18:cjc160_1275"
    INDEX 01 01:54:16
  TRACK 91 AUDIO
    TITLE "0:"
    INDEX 01 01:55:61
  TRACK 92 AUDIO
    TITLE "19:cjc160_1276"
    INDEX 01 01:56:23
  TRACK 93 AUDIO
    TITLE "0:"
    INDEX 01 01:59:09
  TRACK 94 AUDIO
    TITLE "18:cjc160_1277"
    INDEX 01 02:00:11
  TRACK 95 AUDIO
    TITLE "0:"
    INDEX 01 02:01:18
  TRACK 96 AUDIO
    TITLE "19:cjc160_1278"
    INDEX 01 02:01:57
  TRACK 97 AUDIO
    TITLE "0:"
    INDEX 01 02:04:20
  TRACK 98 AUDIO
    TITLE "18:cjc160_1279"
    INDEX 01 02:05:22
  TRACK 99 AUDIO
    TITLE "0:"
    INDEX 01 02:06:74
  TRACK 100 AUDIO
    TITLE "19:cjc160_1280"
    INDEX 01 02:07:36
  TRACK 101 AUDIO
    TITLE "0:"
    INDEX 01 02:10:31
  TRACK 102 AUDIO
    TITLE "18:cjc160_1281"
    INDEX 01 02:11:30
  TRACK 103 AUDIO
    TITLE "0:"
    INDEX 01 02:12:47
  TRACK 104 AUDIO
    TITLE "19:cjc160_1282"
    INDEX 01 02:13:11
  TRACK 105 AUDIO
    TITLE "0:"
    INDEX 01 02:14:58
  TRACK 106 AUDIO
    TITLE "18:cjc160_1283"
    INDEX 01 02:15:57
  TRACK 107 AUDIO
    TITLE "0:"
    INDEX 01 02:17:19
  TRACK 108 AUDIO
    TITLE "19:cjc160_1284"
    INDEX 01 02:17:54
  TRACK 109 AUDIO
    TITLE "0:"
    INDEX 01 02:20:21
  TRACK 110 AUDIO
    TITLE "18:cjc160_1285"
    INDEX 01 02:21:23
  TRACK 111 AUDIO
    TITLE "0:"
    INDEX 01 02:22:69
  TRACK 112 AUDIO
    TITLE "19:cjc160_1286"
    INDEX 01 02:23:31
  TRACK 113 AUDIO
    TITLE "0:"
    INDEX 01 02:26:47
  TRACK 114 AUDIO
    TITLE "18:cjc160_1287"
    INDEX 01 02:27:47
  TRACK 115 AUDIO
    TITLE "0:"
    INDEX 01 02:29:03
  TRACK 116 AUDIO
    TITLE "19:cjc160_1288"
    INDEX 01 02:29:40
  TRACK 117 AUDIO
    TITLE "0:"
    INDEX 01 02:32:03
  TRACK 118 AUDIO
    TITLE "18:cjc160_1289"
    INDEX 01 02:33:02
  TRACK 119 AUDIO
    TITLE "0:"
    INDEX 01 02:35:21
  TRACK 120 AUDIO
    TITLE "19:cjc160_1290"
    INDEX 01 02:35:62
  TRACK 121 AUDIO
    TITLE "0:"
    INDEX 01 02:38:13
  TRACK 122 AUDIO
    TITLE "18:cjc160_1291"
    INDEX 01 02:39:15
  TRACK 123 AUDIO
    TITLE "0:"
    INDEX 01 02:40:30
  TRACK 124 AUDIO
    TITLE "19:cjc160_1292"
    INDEX 01 02:40:73
  TRACK 125 AUDIO
    TITLE "0:"
    INDEX 01 02:44:49
  TRACK 126 AUDIO
    TITLE "18:cjc160_1293"
    INDEX 01 02:45:51
  TRACK 127 AUDIO
    TITLE "0:"
    INDEX 01 02:47:18
  TRACK 128 AUDIO
    TITLE "19:cjc160_1294"
    INDEX 01 02:47:55
  TRACK 129 AUDIO
    TITLE "0:"
    INDEX 01 02:50:19
  TRACK 130 AUDIO
    TITLE "18:cjc160_1295"
    INDEX 01 02:51:20
  TRACK 131 AUDIO
    TITLE "0:"
    INDEX 01 02:52:53
  TRACK 132 AUDIO
    TITLE "19:cjc160_1296"
    INDEX 01 02:53:15
  TRACK 133 AUDIO
    TITLE "0:"
    INDEX 01 02:55:10
  TRACK 134 AUDIO
    TITLE "18:cjc160_1297"
    INDEX 01 02:56:09
  TRACK 135 AUDIO
    TITLE "0:"
    INDEX 01 02:57:34
  TRACK 136 AUDIO
    TITLE "19:cjc160_1298"
    INDEX 01 02:57:71
  TRACK 137 AUDIO
    TITLE "0:"
    INDEX 01 02:59:51
  TRACK 138 AUDIO
    TITLE "18:cjc160_1299"
    INDEX 01 03:00:52
  TRACK 139 AUDIO
    TITLE "0:"
    INDEX 01 03:01:73
  TRACK 140 AUDIO
    TITLE "19:cjc160_1300"
    INDEX 01 03:02:37
  TRACK 141 AUDIO
    TITLE "0:"
    INDEX 01 03:05:12
  TRACK 142 AUDIO
    TITLE "18:cjc160_1301"
    INDEX 01 03:06:12
  TRACK 143 AUDIO
    TITLE "0:"
    INDEX 01 03:07:37
  TRACK 144 AUDIO
    TITLE "19:cjc160_1302"
    INDEX 01 03:07:74
  TRACK 145 AUDIO
    TITLE "0:"
    INDEX 01 03:10:25
  TRACK 146 AUDIO
    TITLE "18:cjc160_1303"
    INDEX 01 03:11:25
  TRACK 147 AUDIO
    TITLE "0:"
    INDEX 01 03:12:44
  TRACK 148 AUDIO
    TITLE "19:cjc160_1304"
    INDEX 01 03:13:04
  TRACK 149 AUDIO
    TITLE "0:"
    INDEX 01 03:15:32
  TRACK 150 AUDIO
    TITLE "18:cjc160_1305"
    INDEX 01 03:16:34
  TRACK 151 AUDIO
    TITLE "0:"
    INDEX 01 03:17:27
  TRACK 152 AUDIO
    TITLE "19:cjc160_1306"
    INDEX 01 03:17:74
  TRACK 153 AUDIO
    TITLE "0:"
    INDEX 01 03:20:55
  TRACK 154 AUDIO
    TITLE "18:cjc160_1307"
    INDEX 01 03:21:68
  TRACK 155 AUDIO
    TITLE "0:"
    INDEX 01 03:23:10
  TRACK 156 AUDIO
    TITLE "19:cjc160_1308"
    INDEX 01 03:23:47
  TRACK 157 AUDIO
    TITLE "0:"
    INDEX 01 03:27:20
  TRACK 158 AUDIO
    TITLE "18:cjc160_1309"
    INDEX 01 03:28:23
  TRACK 159 AUDIO
    TITLE "0:"
    INDEX 01 03:29:34
  TRACK 160 AUDIO
    TITLE "19:cjc160_1310"
    INDEX 01 03:30:00
  TRACK 161 AUDIO
    TITLE "0:"
    INDEX 01 03:32:19
  TRACK 162 AUDIO
    TITLE "18:cjc160_1311"
    INDEX 01 03:33:20
  TRACK 163 AUDIO
    TITLE "0:"
    INDEX 01 03:34:31
  TRACK 164 AUDIO
    TITLE "19:cjc160_1312"
    INDEX 01 03:34:69
  TRACK 165 AUDIO
    TITLE "0:"
    INDEX 01 03:37:26
  TRACK 166 AUDIO
    TITLE "18:cjc160_1313"
    INDEX 01 03:38:25
  TRACK 167 AUDIO
    TITLE "0:"
    INDEX 01 03:39:39
  TRACK 168 AUDIO
    TITLE "19:cjc160_1314"
    INDEX 01 03:39:74
  TRACK 169 AUDIO
    TITLE "0:"
    INDEX 01 03:42:11
  TRACK 170 AUDIO
    TITLE "18:cjc160_1315"
    INDEX 01 03:43:15
  TRACK 171 AUDIO
    TITLE "0:"
    INDEX 01 03:45:18
  TRACK 172 AUDIO
    TITLE "19:cjc160_1316"
    INDEX 01 03:45:57
  TRACK 173 AUDIO
    TITLE "0:"
    INDEX 01 03:48:26
  TRACK 174 AUDIO
    TITLE "18:cjc160_1317"
    INDEX 01 03:49:21
  TRACK 175 AUDIO
    TITLE "0:"
    INDEX 01 03:50:46
  TRACK 176 AUDIO
    TITLE "19:cjc160_1318"
    INDEX 01 03:51:08
  TRACK 177 AUDIO
    TITLE "0:"
    INDEX 01 03:53:68
  TRACK 178 AUDIO
    TITLE "18:cjc160_1319"
    INDEX 01 03:54:69
  TRACK 179 AUDIO
    TITLE "0:"
    INDEX 01 03:56:33
  TRACK 180 AUDIO
    TITLE "19:cjc160_1320"
    INDEX 01 03:56:72
  TRACK 181 AUDIO
    TITLE "0:"
    INDEX 01 03:59:18
  TRACK 182 AUDIO
    TITLE "18:cjc160_1321"
    INDEX 01 04:00:17
  TRACK 183 AUDIO
    TITLE "0:"
    INDEX 01 04:01:38
  TRACK 184 AUDIO
    TITLE "19:cjc160_1322"
    INDEX 01 04:02:02
  TRACK 185 AUDIO
    TITLE "0:"
    INDEX 01 04:05:07
  TRACK 186 AUDIO
    TITLE "18:cjc160_1323"
    INDEX 01 04:06:08
  TRACK 187 AUDIO
    TITLE "0:"
    INDEX 01 04:07:43
  TRACK 188 AUDIO
    TITLE "19:cjc160_1324"
    INDEX 01 04:07:72
  TRACK 189 AUDIO
    TITLE "0:"
    INDEX 01 04:09:40
  TRACK 190 AUDIO
    TITLE "18:cjc160_1325"
    INDEX 01 04:10:41
  TRACK 191 AUDIO
    TITLE "0:"
    INDEX 01 04:11:70
  TRACK 192 AUDIO
    TITLE "19:cjc160_1326"
    INDEX 01 04:12:36
  TRACK 193 AUDIO
    TITLE "0:"
    INDEX 01 04:16:08
  TRACK 194 AUDIO
    TITLE "18:cjc160_1327"
    INDEX 01 04:17:10
  TRACK 195 AUDIO
    TITLE "0:"
    INDEX 01 04:18:37
  TRACK 196 AUDIO
    TITLE "19:cjc160_1328"
    INDEX 01 04:18:74
  TRACK 197 AUDIO
    TITLE "0:"
    INDEX 01 04:21:02
  TRACK 198 AUDIO
    TITLE "18:cjc160_1329"
    INDEX 01 04:22:03
  TRACK 199 AUDIO
    TITLE "0:"
    INDEX 01 04:23:63
  TRACK 200 AUDIO
    TITLE "19:cjc160_1330"
    INDEX 01 04:24:24
  TRACK 201 AUDIO
    TITLE "0:"
    INDEX 01 04:27:14
  TRACK 202 AUDIO
    TITLE "18:cjc160_1331"
    INDEX 01 04:28:15
  TRACK 203 AUDIO
    TITLE "0:"
    INDEX 01 04:29:58
  TRACK 204 AUDIO
    TITLE "19:cjc160_1332"
    INDEX 01 04:30:28
  TRACK 205 AUDIO
    TITLE "0:"
    INDEX 01 04:32:48
  TRACK 206 AUDIO
    TITLE "18:cjc160_1333"
    INDEX 01 04:33:48
  TRACK 207 AUDIO
    TITLE "0:"
    INDEX 01 04:35:15
  TRACK 208 AUDIO
    TITLE "19:cjc160_1334"
    INDEX 01 04:35:53
  TRACK 209 AUDIO
    TITLE "0:"
    INDEX 01 04:38:20
  TRACK 210 AUDIO
    TITLE "18:cjc160_1335"
    INDEX 01 04:39:23
  TRACK 211 AUDIO
    TITLE "0:"
    INDEX 01 04:40:64
  TRACK 212 AUDIO
    TITLE "19:cjc160_1336"
    INDEX 01 04:41:28
  TRACK 213 AUDIO
    TITLE "0:"
    INDEX 01 04:45:02
  TRACK 214 AUDIO
    TITLE "18:cjc160_1337"
    INDEX 01 04:46:09
  TRACK 215 AUDIO
    TITLE "0:"
    INDEX 01 04:48:24
  TRACK 216 AUDIO
    TITLE "19:cjc160_1338"
    INDEX 01 04:48:61
  TRACK 217 AUDIO
    TITLE "0:"
    INDEX 01 04:51:65
  TRACK 218 AUDIO
    TITLE "18:cjc160_1339"
    INDEX 01 04:52:65
  TRACK 219 AUDIO
    TITLE "0:"
    INDEX 01 04:54:29
  TRACK 220 AUDIO
    TITLE "19:cjc160_1340"
    INDEX 01 04:54:70
  TRACK 221 AUDIO
    TITLE "0:"
    INDEX 01 04:57:33
  TRACK 222 AUDIO
    TITLE "18:cjc160_1341"
    INDEX 01 04:58:40
  TRACK 223 AUDIO
    TITLE "0:"
    INDEX 01 05:00:25
  TRACK 224 AUDIO
    TITLE "19:cjc160_1342"
    INDEX 01 05:00:62
  TRACK 225 AUDIO
    TITLE "0:"
    INDEX 01 05:03:49
  TRACK 226 AUDIO
    TITLE "18:cjc160_1343"
    INDEX 01 05:04:45
  TRACK 227 AUDIO
    TITLE "0:"
    INDEX 01 05:06:20
  TRACK 228 AUDIO
    TITLE "19:cjc160_1344"
    INDEX 01 05:06:57
  TRACK 229 AUDIO
    TITLE "0:"
    INDEX 01 05:09:44
  TRACK 230 AUDIO
    TITLE "18:cjc160_1345"
    INDEX 01 05:10:43
  TRACK 231 AUDIO
    TITLE "0:"
    INDEX 01 05:12:07
  TRACK 232 AUDIO
    TITLE "19:cjc160_1346"
    INDEX 01 05:12:48
  TRACK 233 AUDIO
    TITLE "0:"
    INDEX 01 05:14:63
  TRACK 234 AUDIO
    TITLE "18:cjc160_1347"
    INDEX 01 05:15:68
  TRACK 235 AUDIO
    TITLE "0:"
    INDEX 01 05:17:16
  TRACK 236 AUDIO
    TITLE "19:cjc160_1348"
    INDEX 01 05:17:57
  TRACK 237 AUDIO
    TITLE "0:"
    INDEX 01 05:20:16
  TRACK 238 AUDIO
    TITLE "18:cjc160_1349"
    INDEX 01 05:21:27
  TRACK 239 AUDIO
    TITLE "0:"
    INDEX 01 05:22:54
  TRACK 240 AUDIO
    TITLE "19:cjc160_1350"
    INDEX 01 05:23:16
  TRACK 241 AUDIO
    TITLE "0:"
    INDEX 01 05:25:51
  TRACK 242 AUDIO
    TITLE "18:cjc160_1351"
    INDEX 01 05:26:50
  TRACK 243 AUDIO
    TITLE "0:"
    INDEX 01 05:28:16
  TRACK 244 AUDIO
    TITLE "19:cjc160_1352"
    INDEX 01 05:28:53
  TRACK 245 AUDIO
    TITLE "0:"
    INDEX 01 05:31:43
  TRACK 246 AUDIO
    TITLE "18:cjc160_1353"
    INDEX 01 05:32:47
  TRACK 247 AUDIO
    TITLE "0:"
    INDEX 01 05:34:28
  TRACK 248 AUDIO
    TITLE "19:cjc160_1354"
    INDEX 01 05:34:67
  TRACK 249 AUDIO
    TITLE "0:"
    INDEX 01 05:38:04
  TRACK 250 AUDIO
    TITLE "18:cjc160_1355"
    INDEX 01 05:39:04
  TRACK 251 AUDIO
    TITLE "0:"
    INDEX 01 05:40:31
  TRACK 252 AUDIO
    TITLE "19:cjc160_1356"
    INDEX 01 05:40:70
  TRACK 253 AUDIO
    TITLE "0:"
    INDEX 01 05:44:01
  TRACK 254 AUDIO
    TITLE "18:cjc160_1357"
    INDEX 01 05:45:00
  TRACK 255 AUDIO
    TITLE "0:"
    INDEX 01 05:46:02
  TRACK 256 AUDIO
    TITLE "19:cjc160_1358"
    INDEX 01 05:46:41
  TRACK 257 AUDIO
    TITLE "0:"
    INDEX 01 05:49:33
  TRACK 258 AUDIO
    TITLE "18:cjc160_1359"
    INDEX 01 05:50:33
  TRACK 259 AUDIO
    TITLE "0:"
    INDEX 01 05:51:44
  TRACK 260 AUDIO
    TITLE "19:cjc160_1360"
    INDEX 01 05:52:10
  TRACK 261 AUDIO
    TITLE "0:"
    INDEX 01 05:53:51
  TRACK 262 AUDIO
    TITLE "18:cjc160_1361"
    INDEX 01 05:54:52
  TRACK 263 AUDIO
    TITLE "0:"
    INDEX 01 05:56:53
  TRACK 264 AUDIO
    TITLE "19:cjc160_1362"
    INDEX 01 05:57:17
  TRACK 265 AUDIO
    TITLE "0:"
    INDEX 01 06:00:41
  TRACK 266 AUDIO
    TITLE "18:cjc160_1363"
    INDEX 01 06:01:43
  TRACK 267 AUDIO
    TITLE "0:"
    INDEX 01 06:03:12
  TRACK 268 AUDIO
    TITLE "19:cjc160_1364"
    INDEX 01 06:03:53
  TRACK 269 AUDIO
    TITLE "0:"
    INDEX 01 06:06:57
  TRACK 270 AUDIO
    TITLE "18:cjc160_1365"
    INDEX 01 06:07:57
  TRACK 271 AUDIO
    TITLE "0:"
    INDEX 01 06:09:13
  TRACK 272 AUDIO
    TITLE "19:cjc160_1366"
    INDEX 01 06:09:54
  TRACK 273 AUDIO
    TITLE "0:"
    INDEX 01 06:12:37
  TRACK 274 AUDIO
    TITLE "18:cjc160_1367"
    INDEX 01 06:13:38
  TRACK 275 AUDIO
    TITLE "0:"
    INDEX 01 06:14:63
  TRACK 276 AUDIO
    TITLE "19:cjc160_1368"
    INDEX 01 06:15:27
  TRACK 277 AUDIO
    TITLE "0:"
    INDEX 01 06:18:19
  TRACK 278 AUDIO
    TITLE "18:cjc160_1369"
    INDEX 01 06:19:19
  TRACK 279 AUDIO
    TITLE "0:"
    INDEX 01 06:22:11
  TRACK 280 AUDIO
    TITLE "19:cjc160_1370"
    INDEX 01 06:22:51
  TRACK 281 AUDIO
    TITLE "0:"
    INDEX 01 06:25:25
  TRACK 282 AUDIO
    TITLE "18:cjc160_1371"
    INDEX 01 06:26:27
  TRACK 283 AUDIO
    TITLE "0:"
    INDEX 01 06:28:36
  TRACK 284 AUDIO
    TITLE "19:cjc160_1372"
    INDEX 01 06:29:00
  TRACK 285 AUDIO
    TITLE "0:"
    INDEX 01 06:32:00
  TRACK 286 AUDIO
    TITLE "18:cjc160_1373"
    INDEX 01 06:32:74
  TRACK 287 AUDIO
    TITLE "0:"
    INDEX 01 06:34:20
  TRACK 288 AUDIO
    TITLE "19:cjc160_1374"
    INDEX 01 06:34:60
  TRACK 289 AUDIO
    TITLE "0:"
    INDEX 01 06:37:64
  TRACK 290 AUDIO
    TITLE "18:cjc160_1375"
    INDEX 01 06:38:65
  TRACK 291 AUDIO
    TITLE "0:"
    INDEX 01 06:40:23
  TRACK 292 AUDIO
    TITLE "19:cjc160_1376"
    INDEX 01 06:40:60
  TRACK 293 AUDIO
    TITLE "0:"
    INDEX 01 06:43:39
  TRACK 294 AUDIO
    TITLE "18:cjc160_1377"
    INDEX 01 06:44:44
  TRACK 295 AUDIO
    TITLE "0:"
    INDEX 01 06:46:35
  TRACK 296 AUDIO
    TITLE "19:cjc160_1378"
    INDEX 01 06:47:00
  TRACK 297 AUDIO
    TITLE "0:"
    INDEX 01 06:49:51
  TRACK 298 AUDIO
    TITLE "18:cjc160_1379"
    INDEX 01 06:50:51
  TRACK 299 AUDIO
    TITLE "0:"
    INDEX 01 06:52:26
  TRACK 300 AUDIO
    TITLE "19:cjc160_1380"
    INDEX 01 06:52:65
  TRACK 301 AUDIO
    TITLE "0:"
    INDEX 01 06:55:58
  TRACK 302 AUDIO
    TITLE "18:cjc160_1381"
    INDEX 01 06:56:57
  TRACK 303 AUDIO
    TITLE "0:"
    INDEX 01 06:58:17
  TRACK 304 AUDIO
    TITLE "19:cjc160_1382"
    INDEX 01 06:58:52
  TRACK 305 AUDIO
    TITLE "0:"
    INDEX 01 07:01:62
  TRACK 306 AUDIO
    TITLE "18:cjc160_1383"
    INDEX 01 07:02:56
  TRACK 307 AUDIO
    TITLE "0:"
    INDEX 01 07:04:14
  TRACK 308 AUDIO
    TITLE "19:cjc160_1384"
    INDEX 01 07:04:49
  TRACK 309 AUDIO
    TITLE "0:"
    INDEX 01 07:06:71
  TRACK 310 AUDIO
    TITLE "18:cjc160_1385"
    INDEX 01 07:07:73
  TRACK 311 AUDIO
    TITLE "0:"
    INDEX 01 07:09:25
  TRACK 312 AUDIO
    TITLE "19:cjc160_1386"
    INDEX 01 07:09:62
  TRACK 313 AUDIO
    TITLE "0:"
    INDEX 01 07:12:33
  TRACK 314 AUDIO
    TITLE "18:cjc160_1387"
    INDEX 01 07:13:32
  TRACK 315 AUDIO
    TITLE "0:"
    INDEX 01 07:14:69
  TRACK 316 AUDIO
    TITLE "19:cjc160_1388"
    INDEX 01 07:15:31
  TRACK 317 AUDIO
    TITLE "0:"
    INDEX 01 07:18:06
  TRACK 318 AUDIO
    TITLE "18:cjc160_1389"
    INDEX 01 07:19:07
  TRACK 319 AUDIO
    TITLE "0:"
    INDEX 01 07:20:24
  TRACK 320 AUDIO
    TITLE "19:cjc160_1390"
    INDEX 01 07:20:58
  TRACK 321 AUDIO
    TITLE "0:"
    INDEX 01 07:22:45
  TRACK 322 AUDIO
    TITLE "18:cjc160_1391"
    INDEX 01 07:23:48
  TRACK 323 AUDIO
    TITLE "0:"
    INDEX 01 07:24:73
  TRACK 324 AUDIO
    TITLE "19:cjc160_1392"
    INDEX 01 07:25:37
  TRACK 325 AUDIO
    TITLE "0:"
    INDEX 01 07:29:69
  TRACK 326 AUDIO
    TITLE "18:cjc160_1393"
    INDEX 01 07:30:70
  TRACK 327 AUDIO
    TITLE "0:"
    INDEX 01 07:32:26
  TRACK 328 AUDIO
    TITLE "19:cjc160_1394"
    INDEX 01 07:32:65
  TRACK 329 AUDIO
    TITLE "0:"
    INDEX 01 07:35:12
  TRACK 330 AUDIO
    TITLE "18:cjc160_1395"
    INDEX 01 07:36:16
  TRACK 331 AUDIO
    TITLE "0:"
    INDEX 01 07:37:66
  TRACK 332 AUDIO
    TITLE "19:cjc160_1396"
    INDEX 01 07:38:26
  TRACK 333 AUDIO
    TITLE "0:"
    INDEX 01 07:41:38
  TRACK 334 AUDIO
    TITLE "18:cjc160_1397"
    INDEX 01 07:42:38
  TRACK 335 AUDIO
    TITLE "0:"
    INDEX 01 07:43:73
  TRACK 336 AUDIO
    TITLE "19:cjc160_1398"
    INDEX 01 07:44:35
  TRACK 337 AUDIO
    TITLE "0:"
    INDEX 01 07:47:27
  TRACK 338 AUDIO
    TITLE "18:cjc160_1399"
    INDEX 01 07:48:29
  TRACK 339 AUDIO
    TITLE "0:"
    INDEX 01 07:49:59
  TRACK 340 AUDIO
    TITLE "19:cjc160_1400"
    INDEX 01 07:50:22
  TRACK 341 AUDIO
    TITLE "0:"
    INDEX 01 07:52:40
  TRACK 342 AUDIO
    TITLE "18:cjc160_1401"
    INDEX 01 07:53:40
  TRACK 343 AUDIO
    TITLE "0:"
    INDEX 01 07:55:21
  TRACK 344 AUDIO
    TITLE "19:cjc160_1402"
    INDEX 01 07:55:60
  TRACK 345 AUDIO
    TITLE "0:"
    INDEX 01 07:58:41
  TRACK 346 AUDIO
    TITLE "18:cjc160_1403"
    INDEX 01 07:59:42
  TRACK 347 AUDIO
    TITLE "0:"
    INDEX 01 08:01:27
  TRACK 348 AUDIO
    TITLE "19:cjc160_1404"
    INDEX 01 08:01:67
  TRACK 349 AUDIO
    TITLE "0:"
    INDEX 01 08:05:57
  TRACK 350 AUDIO
    TITLE "18:cjc160_1405"
    INDEX 01 08:06:56
  TRACK 351 AUDIO
    TITLE "0:"
    INDEX 01 08:08:20
  TRACK 352 AUDIO
    TITLE "19:cjc160_1406"
    INDEX 01 08:08:57
  TRACK 353 AUDIO
    TITLE "0:"
    INDEX 01 08:12:33
  TRACK 354 AUDIO
    TITLE "18:cjc160_1407"
    INDEX 01 08:13:34
  TRACK 355 AUDIO
    TITLE "0:"
    INDEX 01 08:14:48
  TRACK 356 AUDIO
    TITLE "19:cjc160_1408"
    INDEX 01 08:15:12
  TRACK 357 AUDIO
    TITLE "0:"
    INDEX 01 08:18:42
  TRACK 358 AUDIO
    TITLE "18:cjc160_1409"
    INDEX 01 08:19:43
  TRACK 359 AUDIO
    TITLE "0:"
    INDEX 01 08:20:42
  TRACK 360 AUDIO
    TITLE "19:cjc160_1410"
    INDEX 01 08:21:16
  TRACK 361 AUDIO
    TITLE "0:"
    INDEX 01 08:23:39
  TRACK 362 AUDIO
    TITLE "18:cjc160_1411"
    INDEX 01 08:24:40
  TRACK 363 AUDIO
    TITLE "0:"
    INDEX 01 08:25:67
  TRACK 364 AUDIO
    TITLE "19:cjc160_1412"
    INDEX 01 08:26:29
  TRACK 365 AUDIO
    TITLE "0:"
    INDEX 01 08:29:47
  TRACK 366 AUDIO
    TITLE "18:cjc160_1413"
    INDEX 01 08:30:47
  TRACK 367 AUDIO
    TITLE "0:"
    INDEX 01 08:31:68
  TRACK 368 AUDIO
    TITLE "19:cjc160_1414"
    INDEX 01 08:32:34
  TRACK 369 AUDIO
    TITLE "0:"
    INDEX 01 08:36:36
  TRACK 370 AUDIO
    TITLE "18:cjc160_1415"
    INDEX 01 08:37:35
  TRACK 371 AUDIO
    TITLE "0:"
    INDEX 01 08:38:56
  TRACK 372 AUDIO
    TITLE "19:cjc160_1416"
    INDEX 01 08:39:20
  TRACK 373 AUDIO
    TITLE "0:"
    INDEX 01 08:42:58
  TRACK 374 AUDIO
    TITLE "18:cjc160_1417"
    INDEX 01 08:43:57
  TRACK 375 AUDIO
    TITLE "0:"
    INDEX 01 08:44:74
  TRACK 376 AUDIO
    TITLE "19:cjc160_1418"
    INDEX 01 08:45:36
  TRACK 377 AUDIO
    TITLE "0:"
    INDEX 01 08:47:47
  TRACK 378 AUDIO
    TITLE "18:cjc160_1419"
    INDEX 01 08:48:45
  TRACK 379 AUDIO
    TITLE "0:"
    INDEX 01 08:49:68
  TRACK 380 AUDIO
    TITLE "19:cjc160_1420"
    INDEX 01 08:50:30
  TRACK 381 AUDIO
    TITLE "0:"
    INDEX 01 08:53:10
  TRACK 382 AUDIO
    TITLE "18:cjc160_1421"
    INDEX 01 08:54:10
  TRACK 383 AUDIO
    TITLE "0:"
    INDEX 01 08:55:25
  TRACK 384 AUDIO
    TITLE "19:cjc160_1422"
    INDEX 01 08:55:62
  TRACK 385 AUDIO
    TITLE "0:"
    INDEX 01 08:59:66
  TRACK 386 AUDIO
    TITLE "18:cjc160_1423"
    INDEX 01 09:00:67
  TRACK 387 AUDIO
    TITLE "0:"
    INDEX 01 09:02:23
  TRACK 388 AUDIO
    TITLE "19:cjc160_1424"
    INDEX 01 09:02:60
  TRACK 389 AUDIO
    TITLE "0:"
    INDEX 01 09:06:07
  TRACK 390 AUDIO
    TITLE "18:cjc160_1425"
    INDEX 01 09:07:15
  TRACK 391 AUDIO
    TITLE "0:"
    INDEX 01 09:08:36
  TRACK 392 AUDIO
    TITLE "19:cjc160_1426"
    INDEX 01 09:08:73
  TRACK 393 AUDIO
    TITLE "0:"
    INDEX 01 09:10:74
  TRACK 394 AUDIO
    TITLE "18:cjc160_1427"
    INDEX 01 09:12:00
  TRACK 395 AUDIO
    TITLE "0:"
    INDEX 01 09:13:19
  TRACK 396 AUDIO
    TITLE "19:cjc160_1428"
    INDEX 01 09:13:56
  TRACK 397 AUDIO
    TITLE "0:"
    INDEX 01 09:16:49
  TRACK 398 AUDIO
    TITLE "18:cjc160_1429"
    INDEX 01 09:17:46
  TRACK 399 AUDIO
    TITLE "0:"
    INDEX 01 09:19:06
  TRACK 400 AUDIO
    TITLE "19:cjc160_1430"
    INDEX 01 09:19:41
  TRACK 401 AUDIO
    TITLE "0:"
    INDEX 01 09:21:62
